<svg xmlns="http://www.w3.org/2000/svg" width="154" height="36" fill="none"><rect width="154" height="36" fill="#1A73E8" rx="4"/><path fill="#fff" d="M30.184 23.224a5.226 5.226 0 0 1-2.072-.406 5.114 5.114 0 0 1-1.638-1.12 5.368 5.368 0 0 1-1.092-1.666 5.314 5.314 0 0 1-.392-2.044c0-.728.131-1.405.392-2.03a5.16 5.16 0 0 1 1.092-1.666 5.008 5.008 0 0 1 1.638-1.134 5.226 5.226 0 0 1 2.072-.406c.747 0 1.433.135 2.058.406a5.01 5.01 0 0 1 1.638 1.134c.476.476.84 1.031 1.092 1.666.262.625.392 1.302.392 2.03 0 .728-.13 1.41-.392 2.044a5.116 5.116 0 0 1-2.73 2.786 5.126 5.126 0 0 1-2.058.406Zm0-1.456c.682 0 1.293-.159 1.834-.476.551-.317.99-.76 1.316-1.33.327-.57.49-1.227.49-1.974 0-.756-.163-1.414-.49-1.974a3.532 3.532 0 0 0-1.316-1.33c-.541-.317-1.152-.476-1.834-.476-.672 0-1.283.159-1.834.476-.55.317-.989.76-1.316 1.33-.326.56-.49 1.218-.49 1.974 0 .747.164 1.405.49 1.974a3.53 3.53 0 0 0 1.316 1.33c.551.317 1.162.476 1.834.476Zm6.943 4.256V15.86h1.414v.966h.084c.13-.205.303-.397.518-.574.224-.187.485-.336.784-.448.298-.112.63-.168.994-.168a3.19 3.19 0 0 1 1.75.49c.513.327.92.775 1.218 1.344.308.57.462 1.223.462 1.96 0 .737-.154 1.39-.462 1.96a3.466 3.466 0 0 1-1.218 1.344 3.19 3.19 0 0 1-1.75.49c-.541 0-1.013-.121-1.414-.364s-.695-.513-.882-.812h-.084l.084.994v2.982h-1.498Zm3.57-4.186c.373 0 .723-.098 1.05-.294a2.1 2.1 0 0 0 .798-.84c.205-.364.308-.789.308-1.274 0-.495-.103-.92-.308-1.274a2.1 2.1 0 0 0-.798-.84 2.006 2.006 0 0 0-1.05-.294c-.373 0-.724.098-1.05.294a2.233 2.233 0 0 0-.798.84c-.205.355-.308.78-.308 1.274 0 .495.103.924.308 1.288.205.355.471.63.798.826.327.196.677.294 1.05.294Zm8.555 1.386c-.7 0-1.325-.163-1.876-.49a3.532 3.532 0 0 1-1.302-1.344c-.308-.57-.462-1.218-.462-1.946 0-.681.15-1.311.448-1.89a3.575 3.575 0 0 1 1.246-1.386c.542-.355 1.162-.532 1.862-.532.738 0 1.363.159 1.876.476.523.317.92.751 1.19 1.302.271.55.406 1.171.406 1.862 0 .103-.004.196-.014.28 0 .084-.004.15-.014.196h-5.516c.038.392.136.733.294 1.022.206.364.476.64.812.826.336.187.7.28 1.092.28.476 0 .873-.107 1.19-.322.327-.224.584-.5.77-.826l1.246.602a3.864 3.864 0 0 1-1.26 1.372c-.532.345-1.194.518-1.988.518Zm-2.072-4.606h3.962a1.644 1.644 0 0 0-.14-.56 1.755 1.755 0 0 0-.966-.966 2.02 2.02 0 0 0-.854-.168c-.41 0-.774.107-1.092.322a2.056 2.056 0 0 0-.742.868c-.074.159-.13.327-.168.504ZM54.293 23v-7.14h1.428v.98h.084c.206-.345.509-.63.91-.854.41-.233.859-.35 1.344-.35.878 0 1.535.261 1.974.784.439.513.658 1.204.658 2.072V23h-1.498v-4.312c0-.579-.145-.999-.434-1.26-.29-.27-.667-.406-1.134-.406-.364 0-.681.103-.952.308-.27.196-.485.457-.644.784-.15.327-.224.677-.224 1.05V23h-1.512Zm11.399-7.14h1.246v-2.016h1.512v2.016h1.75v1.316h-1.75v3.43c0 .355.07.625.21.812.15.187.397.28.742.28.168 0 .317-.023.448-.07a3.83 3.83 0 0 0 .392-.196v1.47a2.88 2.88 0 0 1-.504.154 3.097 3.097 0 0 1-.63.056c-.663 0-1.19-.191-1.582-.574-.392-.392-.588-.929-.588-1.61v-3.752h-1.246V15.86ZM71.969 23V12.976h1.512v2.744l-.084 1.12h.084c.196-.345.495-.63.896-.854.41-.233.863-.35 1.358-.35.597 0 1.092.121 1.484.364.401.243.7.579.896 1.008.196.42.294.915.294 1.484V23H76.91v-4.312c0-.383-.075-.695-.224-.938a1.37 1.37 0 0 0-.56-.546 1.674 1.674 0 0 0-.784-.182c-.364 0-.686.103-.966.308-.28.205-.5.476-.658.812a2.371 2.371 0 0 0-.238 1.05V23h-1.512Zm11.674.224c-.7 0-1.325-.163-1.876-.49a3.534 3.534 0 0 1-1.302-1.344c-.308-.57-.462-1.218-.462-1.946 0-.681.15-1.311.448-1.89a3.575 3.575 0 0 1 1.246-1.386c.541-.355 1.162-.532 1.862-.532.737 0 1.363.159 1.876.476.523.317.92.751 1.19 1.302.27.55.406 1.171.406 1.862 0 .103-.005.196-.014.28 0 .084-.005.15-.014.196h-5.516c.037.392.135.733.294 1.022.205.364.476.64.812.826.336.187.7.28 1.092.28.476 0 .873-.107 1.19-.322.327-.224.583-.5.77-.826l1.246.602a3.864 3.864 0 0 1-1.26 1.372c-.532.345-1.195.518-1.988.518Zm-2.072-4.606h3.962a1.644 1.644 0 0 0-.14-.56 1.754 1.754 0 0 0-.966-.966 2.02 2.02 0 0 0-.854-.168c-.41 0-.775.107-1.092.322a2.056 2.056 0 0 0-.742.868c-.075.159-.13.327-.168.504Zm13.682 4.606a3.234 3.234 0 0 1-1.75-.49 3.43 3.43 0 0 1-1.232-1.344c-.298-.57-.448-1.223-.448-1.96 0-.737.15-1.39.448-1.96a3.43 3.43 0 0 1 1.232-1.344 3.234 3.234 0 0 1 1.75-.49c.374 0 .71.056 1.008.168.299.112.556.261.77.448.224.177.397.369.518.574h.084l-.084-.994v-2.856h1.498V23h-1.414v-.952h-.084a2.423 2.423 0 0 1-.518.574 2.668 2.668 0 0 1-.77.434 2.854 2.854 0 0 1-1.008.168Zm.224-1.386c.374 0 .724-.098 1.05-.294.336-.196.602-.471.798-.826.206-.364.308-.793.308-1.288s-.102-.92-.308-1.274a2.1 2.1 0 0 0-.798-.84 2.006 2.006 0 0 0-1.05-.294c-.373 0-.723.098-1.05.294a2.235 2.235 0 0 0-.798.84c-.205.355-.308.78-.308 1.274 0 .485.103.91.308 1.274.206.364.472.644.798.84.327.196.677.294 1.05.294Zm8.795 1.386c-.7 0-1.325-.163-1.876-.49a3.528 3.528 0 0 1-1.302-1.344c-.308-.57-.462-1.218-.462-1.946 0-.681.149-1.311.448-1.89a3.577 3.577 0 0 1 1.246-1.386c.541-.355 1.162-.532 1.862-.532.737 0 1.363.159 1.876.476.523.317.919.751 1.19 1.302.271.55.406 1.171.406 1.862 0 .103-.005.196-.014.28 0 .084-.005.15-.014.196h-5.516c.037.392.135.733.294 1.022.205.364.476.64.812.826.336.187.7.28 1.092.28.476 0 .873-.107 1.19-.322.327-.224.583-.5.77-.826l1.246.602a3.864 3.864 0 0 1-1.26 1.372c-.532.345-1.195.518-1.988.518Zm-2.072-4.606h3.962a1.637 1.637 0 0 0-.14-.56 1.755 1.755 0 0 0-.966-.966 2.02 2.02 0 0 0-.854-.168c-.411 0-.775.107-1.092.322a2.056 2.056 0 0 0-.742.868 2.251 2.251 0 0 0-.168.504ZM109.313 23v-7.14h1.428v.98h.084c.14-.233.322-.439.546-.616.224-.177.476-.317.756-.42a2.46 2.46 0 0 1 .896-.168c.532 0 .984.126 1.358.378.373.252.639.57.798.952.233-.373.55-.686.952-.938.401-.261.891-.392 1.47-.392.84 0 1.465.257 1.876.77.41.504.616 1.176.616 2.016V23h-1.498v-4.326c0-.579-.126-.999-.378-1.26-.243-.261-.584-.392-1.022-.392-.346 0-.649.098-.91.294a1.876 1.876 0 0 0-.616.77c-.14.327-.21.69-.21 1.092V23h-1.498v-4.326c0-.57-.126-.985-.378-1.246-.252-.27-.607-.406-1.064-.406-.327 0-.621.098-.882.294a2.048 2.048 0 0 0-.602.784c-.14.327-.21.69-.21 1.092V23h-1.512Zm16.092.224c-.737 0-1.386-.168-1.946-.504a3.602 3.602 0 0 1-1.316-1.358 3.955 3.955 0 0 1-.476-1.932c0-.71.159-1.349.476-1.918a3.573 3.573 0 0 1 1.316-1.372c.56-.336 1.209-.504 1.946-.504.728 0 1.372.173 1.932.518.56.336.999.789 1.316 1.358.317.57.476 1.209.476 1.918 0 .71-.159 1.353-.476 1.932a3.602 3.602 0 0 1-1.316 1.358c-.56.336-1.204.504-1.932.504Zm0-1.386c.392 0 .756-.093 1.092-.28.336-.196.607-.471.812-.826.215-.364.322-.798.322-1.302s-.107-.933-.322-1.288a2.094 2.094 0 0 0-.812-.826 2.204 2.204 0 0 0-2.198 0 2.195 2.195 0 0 0-.826.826c-.205.355-.308.784-.308 1.288s.103.938.308 1.302c.215.355.495.63.84.826.345.187.709.28 1.092.28Z"/></svg>